<svg width="12" height="12" viewBox="0 0 12 12" fill="none" xmlns="http://www.w3.org/2000/svg">
<path d="M11.7163 6.80539C11.5937 6.77472 11.471 6.80539 11.3636 6.88207C10.9649 7.21945 10.5048 7.49549 9.99877 7.67952C9.52337 7.86355 9.00196 7.95556 8.44988 7.95556C7.2077 7.95556 6.07287 7.44949 5.26009 6.6367C4.4473 5.82392 3.94123 4.68909 3.94123 3.44691C3.94123 2.9255 4.03325 2.41943 4.1866 1.95937C4.35529 1.46863 4.60066 1.0239 4.92271 0.64051C5.06073 0.471819 5.03006 0.226451 4.86136 0.0884309C4.75402 0.0117533 4.63133 -0.0189178 4.50865 0.0117533C3.20513 0.364471 2.0703 1.14658 1.25751 2.1894C0.475402 3.21688 0 4.48973 0 5.88526C0 7.55684 0.674764 9.07505 1.77892 10.1792C2.88308 11.2834 4.4013 11.9581 6.07287 11.9581C7.48374 11.9581 8.78726 11.4674 9.83008 10.6546C10.8882 9.82649 11.655 8.64566 11.9771 7.29613C12.0537 7.0661 11.931 6.8514 11.7163 6.80539ZM9.37001 10.0105C8.48055 10.716 7.34572 11.1453 6.10354 11.1453C4.64667 11.1453 3.32781 10.5473 2.37701 9.59646C1.4262 8.64566 0.828119 7.3268 0.828119 5.86993C0.828119 4.65842 1.22684 3.55426 1.91694 2.6648C2.39234 2.05138 2.99043 1.54531 3.68053 1.19259C3.60385 1.36128 3.52717 1.52997 3.46583 1.714C3.26647 2.26608 3.17446 2.84883 3.17446 3.46225C3.17446 4.91912 3.77254 6.25332 4.72334 7.20412C5.67415 8.15492 7.00834 8.75301 8.46521 8.75301C9.10931 8.75301 9.72273 8.64566 10.2901 8.43096C10.4895 8.35428 10.6889 8.27761 10.8729 8.18559C10.5048 8.89103 9.99877 9.51978 9.37001 10.0105Z" fill="#242326"/>
</svg>
